<?xml version="1.0" standalone="no"?><!DOCTYPE svg PUBLIC "-//W3C//DTD SVG 1.1//EN" "http://www.w3.org/Graphics/SVG/1.1/DTD/svg11.dtd"><svg class="icon" width="200px" height="200.00px" viewBox="0 0 1024 1024" version="1.1" xmlns="http://www.w3.org/2000/svg"><path d="M512.1 850.7c-321.8 0-437.9-290-439-292.9-13-25.5-11.9-66.1 2.1-93.3 1.5-3.4 127.3-291.1 437-291.1 308.6 0 432.4 280.4 437.5 292.3 13.5 24.8 13.8 66.5 1 93.5-1.5 3.6-119.7 291.5-438.6 291.5z m0-615.7c-266 0-379.4 253-380.5 255.5-5.9 11.7-6.7 32.1-1.5 42.5 10.3 25.7 110.9 255.9 382 255.9 281 0 380.3-251.5 381.2-254 5.4-11.5 5.6-32.4 0.2-42.5C882 466.5 771 235 512.1 235z"  /><path d="M512 701.6c-81.2-0.1-147.4-65.7-147.5-146.3v-86.5c0-80.7 66.2-146.4 147.5-146.4 81.3 0.1 147.4 65.8 147.5 146.4v86.5c0 80.6-66.2 146.3-147.5 146.3z m0-317.5c-46.9 0-85.2 38-85.2 84.7v86.5c0 46.7 38.2 84.6 85.2 84.6 46.9-0.1 85.1-38 85.2-84.6v-86.5c0-46.7-38.2-84.7-85.2-84.7z"  /></svg>