<?xml version="1.0" standalone="no"?><!DOCTYPE svg PUBLIC "-//W3C//DTD SVG 1.1//EN" "http://www.w3.org/Graphics/SVG/1.1/DTD/svg11.dtd"><svg class="icon" width="200px" height="191.76px" viewBox="0 0 1068 1024" version="1.1" xmlns="http://www.w3.org/2000/svg"><path d="M563.645217 578.782609c2.537739-35.350261 6.322087-58.189913 11.397566-68.518957 7.568696-15.449043 24.175304-34.370783 49.775304-56.631652 35.172174-30.72 58.546087-53.960348 70.121739-69.810087 11.575652-15.805217 17.408-36.418783 17.408-61.885217 0-41.939478-15.805217-76.399304-47.37113-103.379479-31.610435-26.980174-73.638957-40.470261-126.130087-40.47026-56.765217 0-101.376 15.760696-133.921392 47.282086C372.424348 256.934957 356.173913 298.562783 356.173913 350.386087h71.145739c1.335652-31.165217 6.811826-55.02887 16.384-71.590957 17.051826-29.740522 47.86087-44.610783 92.338087-44.610782 35.973565 0 61.796174 8.637217 77.378783 25.911652 15.582609 17.274435 23.373913 37.665391 23.373913 61.128348 0 16.784696-5.342609 32.990609-16.027826 48.573217-5.787826 8.904348-13.534609 17.363478-23.151305 25.555478l-31.966608 28.40487c-30.675478 27.113739-50.487652 51.155478-59.570087 72.125217-6.054957 13.979826-10.551652 41.627826-13.579131 82.899479h71.145739z m15.137392 89.043478a44.521739 44.521739 0 1 0-89.043479 0 44.521739 44.521739 0 0 0 89.043479 0z" fill="#008df0" /><path d="M934.912 0h-801.391304a133.565217 133.565217 0 0 0-133.565218 133.565217v623.304348l0.222609 7.835826A133.565217 133.565217 0 0 0 133.565217 890.434783h222.608696v89.043478a44.521739 44.521739 0 0 0 64.556522 39.713391L675.661913 890.434783h259.294609a133.565217 133.565217 0 0 0 133.565217-133.565218V133.565217a133.565217 133.565217 0 0 0-133.565217-133.565217z m-801.391304 89.043478h801.391304a44.521739 44.521739 0 0 1 44.521739 44.521739v623.304348a44.521739 44.521739 0 0 1-44.521739 44.521739h-269.801739a44.521739 44.521739 0 0 0-20.034783 4.763826l-199.902608 100.930783V845.913043a44.521739 44.521739 0 0 0-44.52174-44.521739h-267.130434a44.521739 44.521739 0 0 1-44.521739-44.521739V133.565217a44.521739 44.521739 0 0 1 44.521739-44.521739z" fill="#008df0" /></svg>