<?xml version="1.0" standalone="no"?><!DOCTYPE svg PUBLIC "-//W3C//DTD SVG 1.1//EN" "http://www.w3.org/Graphics/SVG/1.1/DTD/svg11.dtd"><svg class="icon" width="200px" height="200.00px" viewBox="0 0 1024 1024" version="1.1" xmlns="http://www.w3.org/2000/svg"><path d="M892.7545783409998 106.57439895392474m-46.64423939396992 0a46.64423939396992 46.64423939396992 0 1 0 93.28847878793984 0 46.64423939396992 46.64423939396992 0 1 0-93.28847878793984 0Z" fill="#FFCDCC" /><path d="M102.8792742791556 822.2831186807598m-46.64423939396992 0a46.64423939396992 46.64423939396992 0 1 0 93.28847878793984 0 46.64423939396992 46.64423939396992 0 1 0-93.28847878793984 0Z" fill="#FFCDCC" /><path d="M194.61004652930063 856.0985550928907m-12.828802981839406 0a12.828802981839406 12.828802981839406 0 1 0 25.65760596367881 0 12.828802981839406 12.828802981839406 0 1 0-25.65760596367881 0Z" fill="#FFCDCC" /><path d="M970.4949773309497 204.3041127155775m-31.096159595979945 0a31.096159595979945 31.096159595979945 0 1 0 62.19231919195989 0 31.096159595979945 31.096159595979945 0 1 0-62.19231919195989 0Z" fill="#FFCDCC" /><path d="M876.6589931437849 488.98008181258723c-75.79192389270816-68.40918932315923-177.92637226812553-89.94762231266918-243.85246357479986-94.8708767456998-21.898068889000854-24.974834524645356-94.81505266577881-60.61314185419539-94.81505266577881-60.61314185419539-19.844386871908082-11.479363203749688-29.67908679798597-14.045123800117572-37.562091006826705-14.045123800117572-9.922730205953275 0-15.631815917871432 18.318886534067584-15.631815917871432 18.318886534067584l-28.209410540066457 81.80804204419165C312.65113706220046 495.90226772278817 312.65113706220046 536.372578585498 280.31933292796964 557.3098291758588v17.99360391452806c32.33073059423228 20.937250590361003 168.29671848175738 89.51069153328768 152.90966968353942 154.48025870131613l-10.258748225477607 73.5170926359284S412.9122581402696 819.8912715641461 428.6728988579587 819.8912715641461c7.878710048846816 0-1.3064981781505074 7.432117409479018 16.525001196607036-6.331738911036723 0 0 111.46458450220955-91.32604767071786 133.35835923121647-116.26116121541948 79.47953378748794-5.975323631541267 177.81042994828962-17.95280939458581 251.3275225842181-100.87303887720304l47.87236915223138-49.26152991026485-1.0971578784468516-58.183720837634496z m-123.76413226479818 49.498782249929c-14.075182920075022 0-25.52985470385966-11.9688974430567-25.52985470385966-26.686057282222936 0-14.712865679172308 11.451451163789207-26.68176312222901 25.52985470385966-26.68176312222901 14.075182920075022 0 25.52770762386271 11.9688974430567 25.52770762386271 26.68176312222901 0.0010735399984802853 14.717159839166229-11.452524703787681 26.686057282222936-25.52770762386271 26.686057282222936z" fill="#FFCDCC" /><path d="M885.166797631741 460.42499139301015c-75.13277033364126-107.23698398819417-207.2297200666434-137.31864828561024-286.70495969413736-143.2521038572108-21.898068889000854-24.975908064643846-123.02661028584225-103.35721043368643-123.02661028584225-103.35721043368643-17.826131674765143-13.737017820553731-29.67908679798597-18.318886534067584-37.562091006826705-18.318886534067584-15.76064071768907 0-15.631815917871432 18.318886534067584-15.631815917871432 18.318886534067584v128.8247998176342c-143.9348752962443 76.32547327195282-143.9348752962443 116.79471059466417-176.26560589047648 137.73196118502517-4.838444773150646 3.1325897155654725-9.71231636625114 4.55395667355337-14.6752917792255 4.55395667355337-28.195454520086216 0-59.34314403599322-45.94965901495318-104.29226377236276-85.41620997908392-23.959265686083008-21.02850149023183-41.28620126155481-29.45579047830207-52.796697125260444-29.45579047830207-13.885166340344009 0-19.30976395266489 12.265194482637257-17.702674574939905 29.45579047830207 2.237257356832914 23.778910966338326 25.419280084016197 75.83808611264281 36.60127270818685 99.9025587185769 2.0654909570760682 6.508873010785968 3.30865027531624 17.38812735538518-3.2345760154210996 32.18472915443895-11.921661683123569 26.006506463184913-31.37850061558027 71.25621739912896-33.36669669276575 92.93206350844439-1.601721677732586 17.173419355689123 3.822875934588296 29.442907998320305 17.71663059492015 29.442907998320305 11.51049586370562 0 28.828843119189585-8.416553588085437 52.782741105280195-29.442907998320305 44.93945787638323-39.52130150405322 76.08822093228869-85.42050413907785 104.279381292381-85.42050413907785 4.9683431129667595 0 9.847582406059656 1.425661117981819 14.689247799205747 4.563618533539692 32.33073059423228 20.937250590361003 32.33073059423228 61.405414373073846 176.26131173048262 137.7265934850328v128.75179909773757s-0.12345709982523284 18.351092734021996 15.636110077865352 18.351092734021996c7.879783588845296 0 19.731665172067647-4.585089333509298 37.562091006826705-18.351092734021996 0 0 101.1274678568429-78.34480200909424 123.02124258584982-103.27884201379737 79.48060732748641-5.975323631541267 211.61405742043686-36.01619340901511 286.7103273941298-143.2521038572108 9.685477866289139-13.850813060392642 18.790170593400433-34.204057891580376 18.790170593400433-51.59755294695795v-0.08373611988146225c-0.0010735399984802853-17.305464775502198-9.104692727111301-37.74459280656835-18.791244133398912-51.51381682707649z m-739.3104965934241 105.33037695089318c-11.976412223046065 12.30598900257951-24.359696105516154 25.034952764560252-38.05591940612764 37.08007154750904-8.701041687682713 7.635016469191789-15.5577416579763 12.659183662079528-20.755822330617836 15.95817207740944 3.4160042751642674-13.53948646083336 12.318871482561274-38.22446518588904 29.262553278575616-75.18966795356071l0.08373611988146225-0.17283993975532597 0.07729487989058055-0.1825017997416485c10.11596740567973-22.878210907613358 7.943122448755632-41.20461222167031 4.3435428338512345-52.55407708560388l-0.5593143392082285-1.7530908175183055-0.7761694189012464-1.6682811576383638C100.55398664244734 446.5355308926722 90.72143379636645 419.67556013069543 87.06280948154563 405.2611385711006c5.19808067264154 3.303282575323838 12.046192322947281 8.32315560821765 20.73327799064975 15.945289597427674 13.755268000527895 12.076251442904733 26.171831622950876 24.83205370484748 38.17937650595286 37.17132244737989 24.40156416545689 25.07145312450859 46.00440955487567 47.26474551309152 70.93200831958791 53.64049956406594-24.965172664659036 6.381121750966815-46.603444874027666 28.614135119493532-71.05117125941922 53.737118163929175z m729.0528219079449-53.73282400393525c0 9.21526734695477-5.587775692089886 23.633983066543486-13.575986820781688 35.05537511037523-30.122458817358325 43.018894819102-73.5342692759041 76.47254825174463-129.02340471735312 99.43234819924253-51.98402734641087 21.507300329554035-102.67336545465449 29.01134491893123-136.03898860742174 31.523428515375095l-11.855102203217792 0.891038198738637-7.827180128919759 8.911455527384847c-14.610879379316684 16.634502276452018-80.74309036569922 69.85095354111824-118.95789369160191 99.45703961920756a145.33262437426558 145.33262437426558 0 0 1-6.338180151027604 4.649501733418116V664.0401022847705l-15.396710658204253-8.167492308438012c-42.72796547951384-22.655988127927948-75.73717335278565-43.7263576781005-100.9149069371438-64.40917928882169-20.622703370806285-16.93724055602346-31.763901475034675-30.142856077329448-41.59752786111409-41.797206300831434-9.374151266729848-11.107918364275513-18.23300333418917-21.6017718494203-31.562075955320374-30.23732759719572-5.262493072550359-3.4084894951749063-10.775120964746627-5.882999191671963-16.486353756661742-7.406352449515488 5.711232791915118-1.5222797178450445 11.223860684111388-3.9989364943390617 16.4831331366663-7.406352449515488 13.339808021116028-8.634482207776937 22.19221884858446-19.129409232920207 31.566370115314314-30.238401137194195 9.833626386079413-11.6532766835035 20.974824490307807-24.855671584814047 41.59752786111409-41.799353380828386 25.177733584358137-20.68389515071965 58.19123561762387-41.75426470089222 100.92027463713616-64.41132636881864l15.396710658204253-8.16105106844713V232.03257733632483a150.21723136735093 150.21723136735093 0 0 1 6.310268111067118 4.61836907346219c38.251303685851056 29.650101218027004 104.35989679226701 82.87621434267956 118.96970263158524 99.54399635908446l7.836841988906084 8.933999867352934 11.878720083184358 0.887817578743196c54.97705686217389 4.103069874191651 190.8668234098069 25.080041444496427 265.04306960480216 130.9547031746191l0.018250179974164855 0.025764959963526853 0.019323719972645138 0.028985579958967694c7.842209688898485 11.13797748423296 13.534118760840956 25.82293112344479 13.534118760840956 34.91259429057736v0.08373611988146225z m-122.0142620672753-55.627622101252946c-30.12675297735225 0-54.57984706273619 24.847083264826196-54.57984706273619 55.60507776128486 0 30.650640496610627 24.452020545385455 55.609371921278786 54.57984706273619 55.609371921278786 30.12675297735225 0 54.57984706273619-24.957657884669672 54.57984706273619-55.609371921278786-0.0010735399984802853-30.75799449645866-24.453094085383945-55.60507776128486-54.57984706273619-55.60507776128486z m0 82.2900615035093c-14.075182920075022 0-25.52985470385966-11.9688974430567-25.52985470385966-26.684983742224457 0-14.711792139173829 11.451451163789207-26.68176312222901 25.52985470385966-26.68176312222901 14.075182920075022 0 25.52770762386271 11.969970983055184 25.52770762386271 26.68176312222901 0.0010735399984802853 14.71608629916775-11.452524703787681 26.684983742224457-25.52770762386271 26.684983742224457z" fill="#FC606C" /></svg>