<?xml version="1.0" standalone="no"?><!DOCTYPE svg PUBLIC "-//W3C//DTD SVG 1.1//EN" "http://www.w3.org/Graphics/SVG/1.1/DTD/svg11.dtd"><svg t="1711540255169" class="icon" viewBox="0 0 1101 1024" version="1.1" xmlns="http://www.w3.org/2000/svg" p-id="4598" xmlns:xlink="http://www.w3.org/1999/xlink" width="215.0390625" height="200"><path d="M558.545455 140.568968c6.613015 0 13.226031 0.169564 19.839046 0.339129-6.613015-0.339129-13.226031-0.339129-19.839046-0.339129z m19.839046 0.339129c6.78258 0.339129 13.395595 0.678258 20.178175 1.186952-6.78258-0.508693-13.56516-0.847822-20.178175-1.186952z" fill="#040000" p-id="4599"></path><path d="M622.301706 122.764696a71.454479 71.454479 0 0 1-3.39129 21.534691h-0.508694l-9.495612-1.017387c-0.339129 0-0.678258-0.169564-1.017387-0.169564-3.052161-0.339129-6.104322-0.508693-9.326047-0.847823h-0.169565c-6.613015-0.508693-13.395595-1.017387-20.178175-1.186951s-13.226031-0.339129-19.839046-0.339129h-6.273886c-2.034774 0-3.899983 0-5.934758 0.169564s-3.899983 0-5.934757 0.169565c-1.356516 0-2.713032 0.169564-4.069548 0.169564a16.447756 16.447756 0 0 0-2.882597 0.169565c-5.595628 0.169564-11.021692 0.508693-16.447756 1.017387l-5.934757 0.508693c-2.204338 0.169564-4.578241 0.508693-6.78258 0.678258l-4.747806 0.508694a2.153469 2.153469 0 0 0-1.017387 0.169564l-4.91737 0.508694c-2.204338 0.339129-4.408677 0.508693-6.613016 0.847822l-3.052161 0.508694A71.217089 71.217089 0 0 1 551.084617 51.717172a70.962742 70.962742 0 0 1 71.217089 71.047524zM1002.465309 636.03643v89.530055H112.929955v-89.530055c0-213.312138 151.760225-397.120053 361.002815-436.96771a454.856764 454.856764 0 0 1 155.999338-2.034774c215.855605 35.43898 372.533201 219.925153 372.533201 439.002484z" fill="#FBEECA" p-id="4600"></path><path d="M1053.504223 729.975161v-93.938731a496.196589 496.196589 0 0 0-384.233152-483.258818 122.239046 122.239046 0 1 0-240.612021-30.521609 124.32469 124.32469 0 0 0 4.578241 33.57377c-217.042557 55.956284-371.515814 252.99023-371.515814 480.206657v90.377877A73.472297 73.472297 0 0 0 0 798.818347v114.625601A73.489253 73.489253 0 0 0 71.386653 986.865375c22.552078 3.052161 276.220566 37.134625 454.771983 37.134625 167.868852 0 478.002318-34.252028 503.776121-37.134625a73.438384 73.438384 0 0 0 71.725783-73.421427v-114.625601a72.539692 72.539692 0 0 0-48.156317-68.843186zM550.915052 51.208478a71.064481 71.064481 0 0 1 67.825799 92.75178h-0.508693l-9.495612-1.017387c-0.339129 0-0.678258-0.169564-1.017387-0.169564-3.052161-0.339129-6.104322-0.508693-9.326048-0.847823h-0.169564c-6.613015-0.508693-13.395595-1.017387-20.178175-1.186951s-13.226031-0.339129-19.839046-0.339129h-6.273887c-2.034774 0-3.899983 0-5.934757 0.169564s-3.899983 0-5.934758 0.169565c-1.356516 0-2.713032 0.169564-4.069548 0.169564a16.447756 16.447756 0 0 0-2.882596 0.169565c-5.595628 0.169564-11.021692 0.508693-16.447756 1.017387l-5.934758 0.508693c-2.204338 0.169564-4.578241 0.508693-6.78258 0.678258l-4.747806 0.508694a2.153469 2.153469 0 0 0-1.017387 0.169564l-4.91737 0.508694c-2.204338 0.339129-4.408677 0.508693-6.613015 0.847822l-3.052161 0.508694a71.352741 71.352741 0 0 1 67.317105-94.61699zM112.929955 636.03643c0-213.312138 151.760225-397.120053 361.002815-436.96771a454.856764 454.856764 0 0 1 155.999338-2.034774C845.787713 232.303361 1002.465309 416.959099 1002.465309 636.03643v89.530055H112.929955z m937.861236 277.407518a22.280775 22.280775 0 0 1-22.21295 22.212949 16.447756 16.447756 0 0 0-2.882596 0.169564c-3.221725 0.339129-330.820334 36.96506-499.367445 36.965061-182.451399 0-446.632886-36.456367-449.345918-36.795496a25.044676 25.044676 0 0 0-3.560855-0.169565 22.280775 22.280775 0 0 1-22.212949-22.212949v-114.6256a22.280775 22.280775 0 0 1 22.212949-22.212949h955.156814a22.280775 22.280775 0 0 1 22.21295 22.212949z" fill="#ED7648" p-id="4601"></path><path d="M284.190098 501.571783a27.961186 27.961186 0 0 1-7.291274-1.017387 25.434675 25.434675 0 0 1-17.295578-31.708561c36.286802-123.27339 146.164597-174.142739 150.742838-176.177512a25.434675 25.434675 0 0 1 21.025997 46.460672c-1.186951 0.508693-93.430038 43.917205-122.764696 144.129823a25.536413 25.536413 0 0 1-24.417287 18.312965z" fill="#ED7648" p-id="4602"></path><path d="M1050.791191 798.987912v114.6256a22.280775 22.280775 0 0 1-22.21295 22.212949 16.447756 16.447756 0 0 0-2.882596 0.169565c-3.221725 0.339129-330.820334 36.96506-499.367445 36.96506-182.451399 0-446.632886-36.456367-449.345918-36.795496a25.044676 25.044676 0 0 0-3.560855-0.169564 22.280775 22.280775 0 0 1-22.212949-22.212949v-114.625601a22.280775 22.280775 0 0 1 22.212949-22.212949h955.156814a21.92469 21.92469 0 0 1 22.21295 22.043385z" fill="#FBEECA" p-id="4603"></path></svg>